<svg width="614" height="90" viewBox="0 0 614 90" fill="none" xmlns="http://www.w3.org/2000/svg">
<path d="M89.792 13.2V51.6H76.992V64.4H25.792V90H0.192V0.399994H76.992V13.2H89.792ZM25.792 51.6H64.192V13.2H25.792V51.6ZM195.792 0.399994V51.6H182.992V64.4H170.192V77.2H157.392V90H144.592V77.2H131.792V64.4H118.992V51.6H106.192V0.399994H131.792V38.8H144.592V51.6H157.392V38.8H170.192V0.399994H195.792ZM301.792 13.2V51.6H288.992V64.4H237.792V90H212.192V0.399994H288.992V13.2H301.792ZM237.792 51.6H276.192V13.2H237.792V51.6ZM407.792 0.399994V51.6H394.992V64.4H382.192V77.2H369.392V90H356.592V77.2H343.792V64.4H330.992V51.6H318.192V0.399994H343.792V38.8H356.592V51.6H369.392V38.8H382.192V0.399994H407.792ZM513.792 26V90H488.192V64.4H449.792V90H424.192V26H436.992V13.2H449.792V0.399994H488.192V13.2H500.992V26H513.792ZM449.792 51.6H488.192V26H475.392V13.2H462.592V26H449.792V51.6ZM613.392 0.399994V13.2H587.792V77.2H613.392V90H536.592V77.2H562.192V13.2H536.592V0.399994H613.392Z" fill="white"/>
</svg>
