<?xml version="1.0" encoding="UTF-8"?>
<svg xmlns="http://www.w3.org/2000/svg" xmlns:xlink="http://www.w3.org/1999/xlink" version="1.1" x="0px" y="0px" viewBox="0 0 100 100" style="enable-background:new 0 0 100 100;" xml:space="preserve">
    <!-- Debug rectangle to show boundaries -->
    <!-- <rect x="0" y="0" width="100" height="100" 
          fill="none" 
          stroke="red" 
          stroke-width="1"/> -->
    <path     fill="#E9171A" d="M24.123,74.564
             C23.292,73.648,7.973,61.073,6.718,47.67
             c-0.062-0.657-1.716,2.109-2.067,0.012
             c-0.461-3.479,2.459-5.854,2.57-6.142
             c1.136-4.136,4.023-8.193,9.501-11.854
             c25.092-16.561,54.974,4.489,60.083,8.272
             c0,0-0.46-6.215,4.569-4.233
             c5.945,2.342,0.45,6.125,0.45,6.125
             s6.29,4.955,7.387,6.486s0,4.864,0,4.864
             s8.092,6.936,5.766,8.288
             c-2.326,1.352-5.691,2.611-7.657,2.252
             c-1.967-0.36-16.371-5.521-22.462,2.834
             c-2.592,3.13-3.754,7.176-3.754,7.176
             s1.196-1.105,4.306,0
             c3.11,1.104,2.871,4.747,2.871,4.747
             s-11.256,0.551-13.845-1.104
             c-2.588-1.654,1.369-13.8,1.369-13.8
             s-14.998,1.558-18.863,1.662
             c-3.864,0.104-7.962-0.334-7.962-0.334
             l0.876,7.173
             c0,0,3.526,0.22,5.637,1.214
             c2.111,0.995,2.222,3.866,2.222,3.866
             S25.909,76.532,24.123,74.564z"/>
</svg>