<svg viewBox="0 150 744 744" xmlns="http://www.w3.org/2000/svg">
    <!-- Debug rectangle to show boundaries -->
    <!-- <rect x="0" y="150" width="744" height="744" 
          fill="none" 
          stroke="red" 
          stroke-width="1"/> -->
  <path
    fill="#17E97D"
    d="M36.16 731.75c-6.98-16.6 21.71-28.72 32.85-42.86 7.96-10.11 17.25-19.23 24.28-30 10.23-15.7 16.77-33.53 
    25.71-50 9.55-27.4 11.96-49.37 34.28-60-14.11-29.26 2.56-61.06 5.71-91.43-7.03-31.7-6.03-60.26 12.85-88.58-4.46-13.43-35.42-16.94-30-30 
    3.64-8.8 22.64 7.45 28.57 0-49.24-29.39-57.86-92.18-24.29-104.29-16.82 56.31 12.94 60.83 37.14 74.28 8.28-1.74 17.03-22.91 77.14-7.15 
    18.08 1.64 25.22-13.85 58.57 10 22.82-13.86 58.45 14.64 52.85-74.29 53.47 89.84-31.5 64.63-20 95.71 2.22 6 15.18 6.51 14.28 12.85-2.17 
    15.18-35.86 5.71-41.43 20-11.73 30.07-2.91 66.13 35.71 90 35.89 8.32 49.32 32.976 80 55.71 42.6-.66 85.38 23.52 108.57 32.85 
    146.06-84.85-56.57-37.38-48.58-94.29 4.15-26.62 41.02-35.56 57.14-57.15 11.34-15.2-25.14-44.05 27.14-50-13.16 26.79 24.14 22.58 14.24 
    70.1-48.89 24.53-83.44 18.07-71.81 48.81 42.65 7.86 158.07 8.98 42.33 94.01 12.51 17.95 38.86 19.14 53.79 54.21 12.18 14.78 22.52 31.01 
    32.85 47.14 12.69 7.24 29.98 12.35 38.57 65.71 9.21 16.09 35.62 32.08 27.14 48.57-3.95 7.66-15.49 3.55-25.72 2.85-9.57-6.3-4.44-22.85-10-32.86-21.52-7.22-17.48-25.7-30-34.29-50.03-14.92-48.2-30.91-74.29-27.15.8 
    59.08-22.51 30.98-32.86 24.28-15.47 27.43-32.74 7.75-38.58-5.72-9.05-.43-18.79-2.06-27.15 1.42-6.54 2.72-15.01 7.24-15.72 14.28-1.78 
    17.62 36.18 25.79 31.42 42.85-4.99 17.89-33.07 18.64-51.43 21.42-15.14 2.29-11.86 4.54-45.72-4.29-3.53-14.78 39.98-9.16 
    38.57-24.29-1.58-16.82-33.02-9.32-47.15-18.58-6.2-4.07-15.11-8.34-15.72-15.72-.68-8.17 17.55-12.49 14.28-20-47.4 11.7-62.94.32-87.15-11.43-10.67 
    2.55-18.21 12.21-27.15 18.57-11.1 7.89-21.9 16.19-32.86 24.28-9.05 6.67-18.73 12.55-27.15 20-8.83 7.81-12.78 23.14-24.29 25.71-16.49 
    3.67-45.16-1.8-47.15-18.58-2.74-23.09 41.95-22.4 57.14-40 13.91-16.13 35.89-37.15 28.57-57.15-44.63 12.42-55.97-5-60-25.72-7.9 1.86-9.87 
    12.95-15.72 18.57-21.78 20.92-47.57 26.03-61.43 52.85-4.82 9.31-3.43 27.51-11.43 34.28-12.09 10.22-41.01 8.87-47.15-5.72Z"
  />
</svg>