<svg width="425" height="77" viewBox="0 0 425 77" fill="none" xmlns="http://www.w3.org/2000/svg">
<path d="M44.181 29.5193C46.6836 29.5193 48.7126 27.5049 48.7126 25.02C48.7126 22.5349 46.6836 20.5205 44.181 20.5205C41.6782 20.5205 39.6494 22.5349 39.6494 25.02C39.6494 27.5049 41.6782 29.5193 44.181 29.5193Z" fill="white"/>
<path d="M57.7557 53.8612C60.2585 53.8612 62.2873 51.8468 62.2873 49.3618C62.2873 46.8769 60.2585 44.8623 57.7557 44.8623C55.2531 44.8623 53.2241 46.8769 53.2241 49.3618C53.2241 51.8468 55.2531 53.8612 57.7557 53.8612Z" fill="white"/>
<path d="M30.6964 53.8612C33.1992 53.8612 35.228 51.8468 35.228 49.3618C35.228 46.8769 33.1992 44.8623 30.6964 44.8623C28.1938 44.8623 26.165 46.8769 26.165 49.3618C26.165 51.8468 28.1938 53.8612 30.6964 53.8612Z" fill="white"/>
<path d="M44.181 43.7741C46.6836 43.7741 48.7126 41.7597 48.7126 39.2749C48.7126 36.7898 46.6836 34.7754 44.181 34.7754C41.6782 34.7754 39.6494 36.7898 39.6494 39.2749C39.6494 41.7597 41.6782 43.7741 44.181 43.7741Z" fill="white"/>
<path d="M19.0447 66.8338H69.0876C70.0785 66.8338 70.6746 65.5749 70.1344 64.6216L66.0422 57.5376C65.6755 56.89 65.0459 56.501 64.3713 56.501H23.8702C22.8625 56.501 21.9332 57.1153 21.4267 58.1157L17.8271 64.4216C17.2841 65.4943 17.9615 66.8366 19.0419 66.8366L19.0447 66.8338Z" fill="white"/>
<path d="M0.295091 64.3173L33.6449 6.73374C34.3194 5.5804 35.8225 5.51924 36.2843 6.62534L40.0964 13.1758C40.6339 14.0234 40.7206 15.0961 40.2645 15.9882C40.2392 16.0383 40.2114 16.0883 40.1833 16.1355L11.8549 64.9706C11.5442 65.5013 11.1355 65.9488 10.6681 66.2907C10.0047 66.7741 9.19303 67.0076 8.37013 66.9992L1.57422 66.941C0.2727 67.0327 -0.43824 65.5763 0.295091 64.3173Z" fill="white"/>
<path d="M87.1103 64.2568L51.2751 1.91798C50.6033 0.764642 49.3746 0.0198355 48.0339 0.00871896C46.6932 -0.00239759 43.7878 -0.00239182 42.3212 0.00594558C40.7734 0.014283 39.1527 1.70955 39.9057 3.05187L76.1384 65.4157C76.6955 66.3717 79.4916 66.8497 79.8638 66.858L85.8535 66.9135C87.1635 67.0193 87.8633 65.5436 87.1133 64.2568H87.1103Z" fill="white"/>
<path d="M109.068 62H98.5227L114.591 15.4545H127.273L143.318 62H132.773L121.114 26.0909H120.75L109.068 62ZM108.409 43.7045H133.318V51.3864H108.409V43.7045ZM171.125 47.1364V27.0909H180.807V62H171.511V55.6591H171.148C170.36 57.7045 169.049 59.3485 167.216 60.5909C165.398 61.8333 163.178 62.4545 160.557 62.4545C158.223 62.4545 156.17 61.9242 154.398 60.8636C152.625 59.803 151.239 58.2955 150.239 56.3409C149.254 54.3864 148.754 52.0455 148.739 49.3182V27.0909H158.42V47.5909C158.436 49.6515 158.989 51.2803 160.08 52.4773C161.17 53.6742 162.633 54.2727 164.466 54.2727C165.633 54.2727 166.723 54.0076 167.739 53.4773C168.754 52.9318 169.572 52.1288 170.193 51.0682C170.83 50.0076 171.14 48.697 171.125 47.1364ZM207.119 27.0909V34.3636H186.097V27.0909H207.119ZM190.869 18.7273H200.551V51.2727C200.551 52.1667 200.688 52.8636 200.96 53.3636C201.233 53.8485 201.612 54.1894 202.097 54.3864C202.597 54.5833 203.172 54.6818 203.824 54.6818C204.278 54.6818 204.733 54.6439 205.188 54.5682C205.642 54.4773 205.991 54.4091 206.233 54.3636L207.756 61.5682C207.271 61.7197 206.589 61.8939 205.71 62.0909C204.831 62.303 203.763 62.4318 202.506 62.4773C200.172 62.5682 198.127 62.2576 196.369 61.5455C194.627 60.8333 193.271 59.7273 192.301 58.2273C191.331 56.7273 190.854 54.8333 190.869 52.5455V18.7273ZM228.824 62.6818C225.294 62.6818 222.241 61.9318 219.665 60.4318C217.104 58.9167 215.127 56.8106 213.733 54.1136C212.339 51.4015 211.642 48.2576 211.642 44.6818C211.642 41.0758 212.339 37.9242 213.733 35.2273C215.127 32.5152 217.104 30.4091 219.665 28.9091C222.241 27.3939 225.294 26.6364 228.824 26.6364C232.354 26.6364 235.4 27.3939 237.96 28.9091C240.536 30.4091 242.521 32.5152 243.915 35.2273C245.309 37.9242 246.006 41.0758 246.006 44.6818C246.006 48.2576 245.309 51.4015 243.915 54.1136C242.521 56.8106 240.536 58.9167 237.96 60.4318C235.4 61.9318 232.354 62.6818 228.824 62.6818ZM228.869 55.1818C230.475 55.1818 231.816 54.7273 232.892 53.8182C233.968 52.8939 234.778 51.6364 235.324 50.0455C235.884 48.4545 236.165 46.6439 236.165 44.6136C236.165 42.5833 235.884 40.7727 235.324 39.1818C234.778 37.5909 233.968 36.3333 232.892 35.4091C231.816 34.4848 230.475 34.0227 228.869 34.0227C227.248 34.0227 225.884 34.4848 224.778 35.4091C223.688 36.3333 222.862 37.5909 222.301 39.1818C221.756 40.7727 221.483 42.5833 221.483 44.6136C221.483 46.6439 221.756 48.4545 222.301 50.0455C222.862 51.6364 223.688 52.8939 224.778 53.8182C225.884 54.7273 227.248 55.1818 228.869 55.1818ZM261.983 41.8182V62H252.301V27.0909H261.528V33.25H261.938C262.71 31.2197 264.006 29.6136 265.824 28.4318C267.642 27.2348 269.847 26.6364 272.438 26.6364C274.862 26.6364 276.975 27.1667 278.778 28.2273C280.581 29.2879 281.983 30.803 282.983 32.7727C283.983 34.7273 284.483 37.0606 284.483 39.7727V62H274.801V41.5C274.816 39.3636 274.271 37.697 273.165 36.5C272.059 35.2879 270.536 34.6818 268.597 34.6818C267.294 34.6818 266.142 34.9621 265.142 35.5227C264.157 36.0833 263.384 36.9015 262.824 37.9773C262.278 39.0379 261.998 40.3182 261.983 41.8182ZM307.886 62.6818C304.356 62.6818 301.303 61.9318 298.727 60.4318C296.167 58.9167 294.189 56.8106 292.795 54.1136C291.402 51.4015 290.705 48.2576 290.705 44.6818C290.705 41.0758 291.402 37.9242 292.795 35.2273C294.189 32.5152 296.167 30.4091 298.727 28.9091C301.303 27.3939 304.356 26.6364 307.886 26.6364C311.417 26.6364 314.462 27.3939 317.023 28.9091C319.598 30.4091 321.583 32.5152 322.977 35.2273C324.371 37.9242 325.068 41.0758 325.068 44.6818C325.068 48.2576 324.371 51.4015 322.977 54.1136C321.583 56.8106 319.598 58.9167 317.023 60.4318C314.462 61.9318 311.417 62.6818 307.886 62.6818ZM307.932 55.1818C309.538 55.1818 310.879 54.7273 311.955 53.8182C313.03 52.8939 313.841 51.6364 314.386 50.0455C314.947 48.4545 315.227 46.6439 315.227 44.6136C315.227 42.5833 314.947 40.7727 314.386 39.1818C313.841 37.5909 313.03 36.3333 311.955 35.4091C310.879 34.4848 309.538 34.0227 307.932 34.0227C306.311 34.0227 304.947 34.4848 303.841 35.4091C302.75 36.3333 301.924 37.5909 301.364 39.1818C300.818 40.7727 300.545 42.5833 300.545 44.6136C300.545 46.6439 300.818 48.4545 301.364 50.0455C301.924 51.6364 302.75 52.8939 303.841 53.8182C304.947 54.7273 306.311 55.1818 307.932 55.1818ZM331.364 62V27.0909H340.591V33.25H341C341.727 31.2045 342.939 29.5909 344.636 28.4091C346.333 27.2273 348.364 26.6364 350.727 26.6364C353.121 26.6364 355.159 27.2348 356.841 28.4318C358.523 29.6136 359.644 31.2197 360.205 33.25H360.568C361.28 31.25 362.568 29.6515 364.432 28.4545C366.311 27.2424 368.53 26.6364 371.091 26.6364C374.348 26.6364 376.992 27.6742 379.023 29.75C381.068 31.8106 382.091 34.7348 382.091 38.5227V62H372.432V40.4318C372.432 38.4924 371.917 37.0379 370.886 36.0682C369.856 35.0985 368.568 34.6136 367.023 34.6136C365.265 34.6136 363.894 35.1742 362.909 36.2955C361.924 37.4015 361.432 38.8636 361.432 40.6818V62H352.045V40.2273C352.045 38.5152 351.553 37.1515 350.568 36.1364C349.598 35.1212 348.318 34.6136 346.727 34.6136C345.652 34.6136 344.682 34.8864 343.818 35.4318C342.97 35.9621 342.295 36.7121 341.795 37.6818C341.295 38.6364 341.045 39.7576 341.045 41.0455V62H331.364ZM405.648 62.6818C402.057 62.6818 398.966 61.9545 396.375 60.5C393.799 59.0303 391.814 56.9545 390.42 54.2727C389.027 51.5758 388.33 48.3864 388.33 44.7045C388.33 41.1136 389.027 37.9621 390.42 35.25C391.814 32.5379 393.777 30.4242 396.307 28.9091C398.852 27.3939 401.837 26.6364 405.261 26.6364C407.564 26.6364 409.708 27.0076 411.693 27.75C413.693 28.4773 415.436 29.5758 416.92 31.0455C418.42 32.5152 419.587 34.3636 420.42 36.5909C421.254 38.803 421.67 41.3939 421.67 44.3636V47.0227H392.193V41.0227H412.557C412.557 39.6288 412.254 38.3939 411.648 37.3182C411.042 36.2424 410.201 35.4015 409.125 34.7955C408.064 34.1742 406.83 33.8636 405.42 33.8636C403.951 33.8636 402.648 34.2045 401.511 34.8864C400.39 35.553 399.511 36.4545 398.875 37.5909C398.239 38.7121 397.913 39.9621 397.898 41.3409V47.0455C397.898 48.7727 398.216 50.2652 398.852 51.5227C399.504 52.7803 400.42 53.75 401.602 54.4318C402.784 55.1136 404.186 55.4545 405.807 55.4545C406.883 55.4545 407.867 55.303 408.761 55C409.655 54.697 410.42 54.2424 411.057 53.6364C411.693 53.0303 412.178 52.2879 412.511 51.4091L421.466 52C421.011 54.1515 420.08 56.0303 418.67 57.6364C417.277 59.2273 415.473 60.4697 413.261 61.3636C411.064 62.2424 408.527 62.6818 405.648 62.6818Z" fill="white"/>
</svg>
