<svg class="MuiSvgIcon-root MuiSvgIcon-fontSizeMedium css-1h7at45" focusable="false" aria-hidden="true" viewBox="-0.2 0 41.5 32">
    <!-- Logo Symbol -->
    <path d="M20.9527 14.0987C22.1395 14.0987 23.1017 13.1366 23.1017 11.9498C23.1017 10.7629 22.1395 9.80078 20.9527 9.80078C19.7658 9.80078 18.8037 10.7629 18.8037 11.9498C18.8037 13.1366 19.7658 14.0987 20.9527 14.0987Z" fill="#FFF"/>
    <path d="M27.3892 25.7252C28.5761 25.7252 29.5382 24.7631 29.5382 23.5762C29.5382 22.3894 28.5761 21.4272 27.3892 21.4272C26.2024 21.4272 25.2402 22.3894 25.2402 23.5762C25.2402 24.7631 26.2024 25.7252 27.3892 25.7252Z" fill="#FFF"/>
    <path d="M14.5564 25.7252C15.7433 25.7252 16.7054 24.7631 16.7054 23.5762C16.7054 22.3894 15.7433 21.4272 14.5564 21.4272C13.3696 21.4272 12.4075 22.3894 12.4075 23.5762C12.4075 24.7631 13.3696 25.7252 14.5564 25.7252Z" fill="#FFF"/>
    <path d="M20.9527 20.9073C22.1395 20.9073 23.1017 19.9452 23.1017 18.7584C23.1017 17.5715 22.1395 16.6094 20.9527 16.6094C19.7658 16.6094 18.8037 17.5715 18.8037 18.7584C18.8037 19.9452 19.7658 20.9073 20.9527 20.9073Z" fill="#FFF"/>
    <path d="M9.03181 31.9202H32.7635C33.2334 31.9202 33.5161 31.3189 33.2599 30.8636L31.3193 27.4802C31.1454 27.1709 30.8468 26.9851 30.5269 26.9851H11.3202C10.8423 26.9851 10.4016 27.2785 10.1614 27.7563L8.45441 30.7681C8.19691 31.2804 8.51812 31.9215 9.03048 31.9215L9.03181 31.9202Z" fill="#FFF"/>
    <path d="M0.13994 30.7189L15.9553 3.21629C16.2752 2.66544 16.988 2.63623 17.207 3.16452L19.0148 6.29308C19.2697 6.69792 19.3108 7.21027 19.0945 7.63635C19.0825 7.66025 19.0693 7.68414 19.056 7.7067L5.62189 31.0309C5.47456 31.2844 5.28076 31.4981 5.05909 31.6614C4.74451 31.8923 4.35958 32.0038 3.96934 31.9998L0.746539 31.972C0.129322 32.0158 -0.207825 31.3202 0.13994 30.7189Z" fill="#FFF"/>
    <path d="M41.3091 30.6898L24.3151 0.916052C23.9965 0.365202 23.4138 0.00947367 22.778 0.00416428C22.1422 -0.00114512 20.7644 -0.00114236 20.0689 0.00283968C19.3349 0.00682173 18.5663 0.816503 18.9234 1.45761L36.1059 31.2433C36.3701 31.6999 37.6961 31.9282 37.8726 31.9322L40.7131 31.9587C41.3343 32.0092 41.6662 31.3044 41.3105 30.6898H41.3091Z" fill="#FFF"/>
</svg>