<svg viewBox="0 0 1503 1504" xmlns="http://www.w3.org/2000/svg"><path fill="#FFF" d="M287 258h928v844H287Z"/><path fill="#E84142" fill-rule="evenodd" d="M1502.5 752c0 414.77-336.23 751-751 751 -414.766 0-751-336.23-751-751C.5 337.234 336.734 1 751.5 1c414.77 0 751 336.234 751 751Zm-963.82 298.86H392.93c-30.63 0-45.76 0-54.98-5.9 -9.97-6.46-16.06-17.16-16.79-28.97 -.56-10.88 7.01-24.17 22.13-50.74l359.87-634.32c15.31-26.94 23.06-40.41 32.83-45.39 10.51-5.35 23.06-5.35 33.57 0 9.77 4.98 17.52 18.44 32.83 45.38l73.98 129.14 .37.65c16.53 28.89 24.92 43.55 28.58 58.93 4.05 16.78 4.05 34.5 0 51.28 -3.69 15.49-12 30.25-28.79 59.59L687.49 964.66l-.49.85c-16.65 29.13-25.09 43.9-36.78 55.04 -12.73 12.18-28.05 21.03-44.84 26.02 -15.32 4.24-32.47 4.24-66.79 4.24Zm368.06 0h208.84c30.81 0 46.31 0 55.54-6.08 9.96-6.46 16.23-17.35 16.79-29.15 .53-10.53-6.87-23.3-21.37-48.33 -.5-.86-1-1.72-1.51-2.61l-104.61-178.96 -1.19-2.02c-14.7-24.86-22.12-37.42-31.65-42.27 -10.51-5.36-22.88-5.36-33.4 0 -9.6 4.98-17.35 18.08-32.66 44.46L857.28 964.85l-.36.61c-15.26 26.34-22.89 39.5-22.34 50.303 .73 11.81 6.82 22.69 16.78 29.15 9.04 5.9 24.53 5.9 55.34 5.9Z"/></svg>