<svg viewBox="0 0 24 24" xmlns="http://www.w3.org/2000/svg"><defs><clipPath id="a"><path d="M0 0h24v24H0Z"/></clipPath></defs><g clip-path="url(#a)"><path fill="#F5F5F5" d="M24 12c0-6.63-5.38-12-12-12C5.37 0 0 5.37 0 12c0 6.62 5.37 12 12 12 6.62 0 12-5.38 12-12Z"/><g fill="#141416"><path d="M13.83 14.18c-3.41 1.02-6.22 2.5-7.98 4.25l-.08.07c.46.44.98.83 1.53 1.17l.11-.15c.48-.59.99-1.16 1.53-1.69 1.44-1.44 3.09-2.68 4.86-3.68l-.01 0Z"/><path d="M2.99 12.67c.13 1.81.81 3.48 1.87 4.84l.04-.05c1.09-1.08 2.51-2.06 4.22-2.91 1.5-.75 3.22-1.39 5.08-1.9H2.97Z"/><path d="M9.92 5.19c3.04 3.02 6.87 5.03 11.07 5.79 -.51-4.491-4.34-7.99-8.99-7.99 -1.23 0-2.4.24-3.47.68 .43.52.89 1.02 1.37 1.5Z"/><path d="M5.85 5.56c1.76 1.74 4.57 3.23 7.97 4.25 -1.78-1-3.43-2.24-4.87-3.68 -.54-.54-1.06-1.1-1.54-1.69l-.12-.15c-.56.33-1.07.73-1.54 1.17l.07.07Z"/><path d="M9.92 18.8c-.48.47-.95.98-1.38 1.5 1.06.44 2.23.68 3.46.68 4.65 0 8.47-3.5 8.98-7.99 -4.21.75-8.04 2.763-11.08 5.79l-.01 0Z"/><path d="M9.14 9.43C7.42 8.57 6 7.6 4.91 6.52l-.05-.05c-1.07 1.35-1.74 3.02-1.88 4.84H14.2c-1.86-.51-3.58-1.15-5.09-1.9l0 0Z"/></g></g></svg>